<svg width="36" height="36" fill="none" xmlns="http://www.w3.org/2000/svg"><path fill-rule="evenodd" clip-rule="evenodd" d="M15.345 6h6.057l1.047 3.645c.405.195.787.416 1.154.664l3.71-.918 3.062 5.25-2.687 2.72a8.13 8.13 0 0 1 .003 1.272l2.668 2.731-3.06 5.246-3.712-.918c-.36.242-.744.466-1.149.662L21.405 30h-6.057l-1.047-3.645a9.088 9.088 0 0 1-1.154-.664l-3.71.918-3.062-5.25 2.687-2.72a8.169 8.169 0 0 1-.025-.64c0-.218.012-.435.032-.645l-2.68-2.713L9.45 9.39l3.712.918c.36-.242.744-.466 1.149-.661L15.345 6Zm1.675 2.286-.865 3.053-.51.206a7.16 7.16 0 0 0-1.6.918l-.418.313-3.104-.768-1.322 2.267 2.241 2.27-.094.584c-.05.304-.08.604-.08.872 0 .295.022.599.066.871l.095.584-2.242 2.27 1.323 2.268 3.106-.77.418.316a6.94 6.94 0 0 0 1.598.916l.507.205.877 3.054h2.714l.865-3.053.51-.206a7.16 7.16 0 0 0 1.6-.918l.418-.313 3.104.769 1.325-2.273-2.196-2.248.067-.555a7.6 7.6 0 0 0 .06-.917c0-.308-.023-.599-.067-.872l-.095-.584 2.242-2.27-1.323-2.267-3.106.769-.418-.316a6.94 6.94 0 0 0-1.598-.916l-.507-.205-.877-3.054H17.02Z" fill="#313338"/><path fill-rule="evenodd" clip-rule="evenodd" d="M18.375 22.364a4.364 4.364 0 1 0 0-8.727 4.364 4.364 0 0 0 0 8.727Zm0-2.182a2.182 2.182 0 1 0 0-4.363 2.182 2.182 0 0 0 0 4.363Z" fill="#313338"/></svg>