<svg width="41" height="40" viewBox="0 0 41 40" fill="none" xmlns="http://www.w3.org/2000/svg">
<path fill-rule="evenodd" clip-rule="evenodd" d="M17.6894 8H23.7466L24.794 11.6448C25.1986 11.8391 25.5808 12.0608 25.9477 12.3084L29.6569 11.3901L32.7197 16.6409L30.0331 19.3608C30.0497 19.5713 30.0579 19.7844 30.0579 20C30.0579 20.217 30.0496 20.4278 30.0355 20.632L32.7034 23.3635L29.6432 28.6099L25.9321 27.6911C25.5711 27.9337 25.1881 28.1573 24.783 28.353L23.75 32H17.6928L16.6455 28.3552C16.2409 28.1609 15.8586 27.9392 15.4918 27.6916L11.7825 28.6099L8.71973 23.3591L11.4067 20.6389C11.3898 20.4247 11.3815 20.2099 11.3815 20C11.3815 19.7816 11.3941 19.5643 11.4142 19.3549L8.73343 16.6409L11.7962 11.3901L15.5074 12.3089C15.8684 12.0663 16.2513 11.8427 16.6564 11.647L17.6894 8ZM19.3644 10.2857L18.4996 13.3388L17.9904 13.5446C17.4206 13.7749 16.8866 14.0902 16.3889 14.4628L15.9716 14.7753L12.8682 14.007L11.5454 16.2748L13.7871 18.5443L13.6928 19.1281C13.6436 19.4325 13.6119 19.732 13.6119 20C13.6119 20.2956 13.6351 20.5993 13.6791 20.8719L13.7734 21.4557L11.5317 23.7252L12.8545 25.993L15.9603 25.2241L16.3785 25.5396C16.8844 25.9214 17.4036 26.2238 17.9767 26.4554L18.4834 26.6602L19.361 29.7143H22.0751L22.9398 26.6612L23.449 26.4554C24.0189 26.2251 24.5528 25.9098 25.0505 25.5372L25.4678 25.2247L28.5712 25.993L29.8966 23.7208L27.7004 21.4722L27.7676 20.9177C27.8045 20.6127 27.8276 20.3082 27.8276 20C27.8276 19.6921 27.8046 19.4018 27.7604 19.1281L27.666 18.5443L29.9077 16.2748L28.5849 14.007L25.4791 14.7759L25.0609 14.4604C24.555 14.0786 24.0359 13.7762 23.4628 13.5446L22.956 13.3398L22.0784 10.2857H19.3644Z" fill="#313338"/>
<path fill-rule="evenodd" clip-rule="evenodd" d="M20.7201 24.364C23.1301 24.364 25.0837 22.4103 25.0837 20.0004C25.0837 17.5904 23.1301 15.6367 20.7201 15.6367C18.3101 15.6367 16.3564 17.5904 16.3564 20.0004C16.3564 22.4103 18.3101 24.364 20.7201 24.364ZM20.7201 22.1822C21.9251 22.1822 22.9019 21.2053 22.9019 20.0004C22.9019 18.7954 21.9251 17.8185 20.7201 17.8185C19.5151 17.8185 18.5383 18.7954 18.5383 20.0004C18.5383 21.2053 19.5151 22.1822 20.7201 22.1822Z" fill="#313338"/>
</svg>
