<svg width="24" height="24" viewBox="0 0 24 24" fill="none" xmlns="http://www.w3.org/2000/svg">
<path fill-rule="evenodd" clip-rule="evenodd" d="M9.22224 0H14.7747L15.7347 3.34107C16.1056 3.51919 16.456 3.7224 16.7923 3.94938L20.1924 3.10763L23 7.92083L20.5373 10.414C20.5525 10.607 20.56 10.8024 20.56 11C20.56 11.1989 20.5524 11.3922 20.5394 11.5794L22.9851 14.0832L20.1799 18.8924L16.778 18.0502C16.4471 18.2726 16.096 18.4775 15.7247 18.657L14.7778 22H9.22533L8.26526 18.6589C7.89438 18.4808 7.54398 18.2776 7.20771 18.0506L3.80756 18.8924L1 14.0792L3.46305 11.5856C3.44758 11.3893 3.43999 11.1924 3.43999 11C3.43999 10.7998 3.45151 10.6006 3.46993 10.4086L1.01256 7.92083L3.82012 3.10763L7.22202 3.94982C7.55291 3.72745 7.90399 3.52249 8.27532 3.34304L9.22224 0ZM10.7576 2.09524L9.9649 4.89388L9.49812 5.08254C8.9758 5.29365 8.48633 5.58267 8.03011 5.92425L7.64757 6.21067L4.80281 5.50641L3.59022 7.58524L5.64513 9.66559L5.55866 10.2008C5.51357 10.4798 5.48445 10.7543 5.48445 11C5.48445 11.2709 5.50572 11.5493 5.5461 11.7992L5.63257 12.3344L3.57766 14.4148L4.79025 16.4936L7.63721 15.7888L8.02056 16.078C8.48432 16.4279 8.96017 16.7051 9.48556 16.9175L9.95005 17.1052L10.7545 19.9048H13.2424L14.0351 17.1061L14.5019 16.9175C15.0242 16.7063 15.5137 16.4173 15.9699 16.0758L16.3524 15.7893L19.1972 16.4936L20.4122 14.4107L18.3989 12.3495L18.4605 11.8412C18.4944 11.5616 18.5155 11.2825 18.5155 11C18.5155 10.7177 18.4944 10.4517 18.4539 10.2008L18.3674 9.66559L20.4223 7.58524L19.2098 5.50641L16.3628 6.21121L15.9794 5.92199C15.5157 5.57208 15.0398 5.29489 14.5144 5.08254L14.0499 4.8948L13.2455 2.09524H10.7576Z" fill="#2C2C30"/>
<path fill-rule="evenodd" clip-rule="evenodd" d="M12 15C14.2091 15 16 13.2091 16 11C16 8.79086 14.2091 7 12 7C9.79086 7 8 8.79086 8 11C8 13.2091 9.79086 15 12 15ZM12 13C13.1046 13 14 12.1046 14 11C14 9.89543 13.1046 9 12 9C10.8954 9 10 9.89543 10 11C10 12.1046 10.8954 13 12 13Z" fill="#2C2C30"/>
</svg>
