<svg width="36" height="36" fill="none" xmlns="http://www.w3.org/2000/svg"><path d="M27.324 31.7V9.882l-5.585-5.58h-8.108l-5.58 5.58V31.7h19.273Z" fill="#fff"/><path d="M28.625 33H6.75V9.345l6.343-6.343h9.184l6.343 6.343v23.657h.005ZM9.352 30.4h16.671V10.423l-4.822-4.822h-7.028l-4.821 4.822v19.975Z" fill="#313338"/><path d="M23.781 19.594h-2.315V16.65h2.315v-2.168h-2.315v-2.48h-2.168v2.48h-3.091v-2.48h-2.168v2.48h-2.364v2.168h2.364v2.944h-2.364v2.168h2.364v2.241h2.167v-2.241h3.092v2.241h2.168v-2.241h2.315v-2.168Zm-4.483 0h-3.091V16.65h3.091v2.944Z" fill="#313338"/></svg>