<svg width="24" height="24" viewBox="0 0 24 24" fill="none" xmlns="http://www.w3.org/2000/svg">
<path d="M19.4589 22.9593V5.50476L14.9912 1.04053H8.50476L4.04053 5.50476V22.9593H19.4589Z" fill="white"/>
<path d="M20.4996 24H3V5.07472L8.07472 0H15.4214L20.4962 5.07472V24H20.4996ZM5.08123 21.9188H18.4184V5.93843L14.5612 2.08123H8.93843L5.08123 5.93843V21.9188Z" fill="#2C2C30"/>
<path d="M16.6251 13.2749H14.7728V10.9196H16.6251V9.18527H14.7728V7.20117H13.0384V9.18527H10.5652V7.20117H8.83088V9.18527H6.94043V10.9196H8.83088V13.2749H6.94043V15.0092H8.83088V16.8026H10.5652V15.0092H13.0384V16.8026H14.7728V15.0092H16.6251V13.2749ZM13.0384 13.2749H10.5652V10.9196H13.0384V13.2749Z" fill="#2C2C30"/>
</svg>
