<svg width="318" height="83" viewBox="0 0 318 83" fill="none" xmlns="http://www.w3.org/2000/svg">
<g clip-path="url(#clip0_438_2765)">
<path d="M8.54821 22.1877H0V14.3626H8.54821V3.30176H17.2779V14.3626H39.8036V22.1877H17.2779V43.5665C17.2779 45.8777 19.1427 47.7432 21.453 47.7432H26.8823V56.5918H19.5223C13.4659 56.5918 8.54821 51.6722 8.54821 45.6136V22.1877Z" fill="#313338"/>
<path d="M31.8002 22.1877H23.252V14.3626H31.8002V3.30176H40.5299V14.3626H50.1343V22.1877H40.5299V43.5665C40.5299 45.8777 42.3947 47.7432 44.705 47.7432H50.1343V56.5918H42.7742C36.7179 56.5918 31.8002 51.6722 31.8002 45.6136V22.1877Z" fill="#313338"/>
<path d="M50.1341 31.5488H0V39.3739H50.1341V31.5488Z" fill="#313338"/>
<path d="M129.575 27.4196C127.215 26.3465 124.476 25.8018 121.357 25.8018C119.178 25.8018 116.967 26.0659 114.706 26.5942C112.908 27.0069 111.356 27.5682 110.003 28.2616C110.003 28.2616 109.64 28.4597 109.162 28.7238C109.112 28.7568 109.046 28.7733 108.996 28.8063C108.98 28.8063 108.963 28.8228 108.947 28.8394C108.32 29.2025 107.577 29.6648 107.247 29.9619L110.35 35.839L111.901 35.1457C111.901 35.1457 111.934 35.1457 111.967 35.1292C112.231 34.9806 112.544 34.865 112.842 34.733L114.013 34.2047C114.723 33.9405 115.498 33.7259 116.324 33.5278C118.023 33.1481 119.69 32.95 121.307 32.95C123.387 32.95 125.086 33.5608 126.439 34.7825C127.776 36.0041 128.453 37.655 128.453 39.7351V41.386C128.453 41.386 123.056 39.2563 117.545 39.6691C113.799 39.9497 109.805 42.0793 108.072 43.9118C106.274 45.8103 105.003 47.9564 105.003 51.1756C105.003 53.3878 105.531 55.3193 106.604 56.9702C107.676 58.621 109.145 59.9087 111.059 60.8002C112.957 61.6917 115.135 62.1374 117.594 62.1374C120.4 62.1374 122.809 61.6752 124.806 60.7342C126.803 59.8097 128.403 58.5385 129.624 56.9207L130.318 61.0808H137.05V39.0747C137.05 36.3673 136.407 34.0066 135.103 32.009C133.8 30.0115 131.968 28.4762 129.624 27.3866L129.575 27.4196ZM128.453 48.8314C128.453 49.7064 128.123 51.2417 127.38 52.0671C126.472 53.0576 125.515 53.6849 124.228 54.3288C122.924 54.9561 121.505 55.2698 119.987 55.2698C118.172 55.2698 116.654 54.8406 115.416 53.9821C114.178 53.1237 113.568 52.0341 113.568 50.6804C113.568 49.5743 114.046 48.8314 114.706 48.0885C115.399 47.3126 116.571 46.157 119.971 45.7938C124.08 45.3481 128.469 47.164 128.469 47.164V48.8149L128.453 48.8314Z" fill="#313338"/>
<path d="M171.788 60.5698C169.841 59.7443 167.547 59.3316 164.89 59.3316H154.642C153.454 59.3316 152.497 59.1005 151.738 58.6383C150.995 58.176 150.616 57.5817 150.616 56.8388C150.616 56.2115 150.764 55.6502 151.061 55.1879C151.358 54.7092 151.771 54.3625 152.299 54.1149C154.263 54.9898 156.342 55.4191 158.487 55.4191C161.359 55.4191 163.933 54.7917 166.211 53.5206C168.504 52.2659 170.287 50.516 171.59 48.2708C172.894 46.0421 173.521 43.5163 173.505 40.7428C173.505 38.316 172.795 36.0378 171.376 33.8752H176.591V26.859H164.313C163.29 26.5123 162.25 26.2482 161.177 26.0501C160.105 25.852 159.23 25.7529 158.553 25.7529C155.748 25.7529 153.207 26.3968 150.962 27.6844C148.718 28.9721 146.952 30.7551 145.698 33.0168C144.444 35.2784 143.8 37.8373 143.8 40.7098C143.8 42.4928 144.081 44.1766 144.626 45.7615C145.17 47.3463 145.962 48.7661 146.985 50.0207C145.731 50.6976 144.725 51.7046 144.015 53.0253C143.305 54.346 142.926 55.7988 142.926 57.4001C142.926 59.3481 143.421 61.032 144.411 62.4683C145.401 63.9045 146.771 65.0106 148.553 65.7865C150.335 66.5624 152.349 66.9421 154.609 66.9421H164.857C166.673 66.9421 168.026 67.2063 168.9 67.7346C169.775 68.2628 170.221 69.1378 170.221 70.3759C170.221 71.7957 169.33 72.8853 167.547 73.6447C165.765 74.4041 163.323 74.7838 160.22 74.7838C158.058 74.7838 155.847 74.6022 153.553 74.239C151.953 73.9748 150.517 73.6612 149.23 73.2815C149.032 73.2154 148.768 73.1329 148.504 73.0504C148.289 72.9843 148.091 72.9183 147.893 72.8357C147.282 72.6211 146.705 72.39 146.507 72.2249L143.718 79.2741C143.718 79.2741 144.097 79.5548 144.873 79.9345L144.923 79.9675C145.731 80.3472 146.952 80.7929 148.619 81.1231C148.636 81.1231 148.652 81.1231 148.685 81.1231C149.725 81.3707 150.814 81.5854 152.002 81.7835C154.807 82.2127 157.547 82.4273 160.22 82.4273C163.768 82.4273 166.871 81.9155 169.544 80.9085C172.217 79.9015 174.264 78.4322 175.716 76.5337C177.168 74.6187 177.878 72.3405 177.878 69.6826C177.878 67.553 177.35 65.704 176.277 64.1357C175.204 62.5673 173.703 61.3787 171.755 60.5533L171.788 60.5698ZM152.695 37.1439C153.306 36.0709 154.114 35.2289 155.154 34.6181C156.194 34.0073 157.349 33.6936 158.603 33.6936C159.857 33.6936 161.062 34.0073 162.135 34.6181C163.207 35.2289 164.032 36.0709 164.659 37.1439C165.27 38.2005 165.583 39.4056 165.583 40.7098C165.583 42.014 165.27 43.1201 164.659 44.1601C164.049 45.2002 163.207 46.0091 162.135 46.6034C161.062 47.1977 159.874 47.4949 158.57 47.4949C157.266 47.4949 156.161 47.1977 155.121 46.5869C154.081 45.9761 153.273 45.1672 152.679 44.1271C152.085 43.0871 151.788 41.9315 151.788 40.6768C151.788 39.4221 152.085 38.217 152.695 37.1439Z" fill="#313338"/>
<path d="M272.866 28.1625C270.374 26.5777 267.552 25.8018 264.433 25.8018C261.908 25.8018 259.598 26.3465 257.519 27.4361C255.423 28.5257 253.69 30.0775 252.288 32.0751L252.089 30.8204L251.528 26.8253H244.399V77.9858H252.948V76.8797C252.948 76.8797 252.948 76.8632 252.948 76.8467L252.865 56.607C254.284 58.3734 255.984 59.7271 257.948 60.6681C259.912 61.6091 262.09 62.0879 264.45 62.0879C267.552 62.0879 270.358 61.2955 272.849 59.7271C275.341 58.1423 277.305 55.9797 278.708 53.2227C280.11 50.4658 280.82 47.3786 280.82 43.9448C280.82 40.511 280.11 37.4404 278.708 34.6669C277.305 31.91 275.341 29.7308 272.849 28.1625H272.866ZM271.249 48.8644C270.374 50.3667 269.219 51.5388 267.734 52.4138C266.265 53.2887 264.648 53.718 262.882 53.718C261.116 53.718 259.4 53.2887 257.882 52.4138C256.364 51.5388 255.159 50.3667 254.268 48.8809C253.393 47.3951 252.948 45.7608 252.948 43.9613C252.948 42.1619 253.393 40.478 254.268 38.9757C255.142 37.4569 256.347 36.2683 257.849 35.3933C259.367 34.5184 261.017 34.0726 262.833 34.0726C264.648 34.0726 266.215 34.5184 267.701 35.3933C269.186 36.2683 270.358 37.4734 271.232 38.9757C272.107 40.478 272.536 42.1454 272.536 43.9613C272.536 45.7773 272.107 47.3621 271.232 48.8479L271.249 48.8644Z" fill="#313338"/>
<path d="M88.8649 40.2637V18.885H106.44V11.0599H88.8649V-0.000976562H80.1351V11.0599H71.5869V18.885H80.1351V42.3108C80.1351 48.3695 85.0528 53.2891 91.1092 53.2891H100.119V44.4404H93.0399C90.7296 44.4404 88.8649 42.575 88.8649 40.2637Z" fill="#313338"/>
<path d="M193.721 40.2637V18.885H212.947V11.0599H193.721V-0.000976562H184.992V11.0599H176.443V18.885H184.992V42.3108C184.992 48.3695 189.909 53.2891 195.966 53.2891H204.976V44.4404H197.896C195.586 44.4404 193.721 42.575 193.721 40.2637Z" fill="#313338"/>
<path d="M240.818 26.8252H231.461L231.098 27.7662C231.098 27.7662 231.081 27.7992 231.065 27.8157L230.817 28.4926L222.748 50.3006L218.853 39.8341L214.018 26.8252H204.645L210.915 41.5014L218.275 58.786L211.13 76.1037L210.387 77.9196H219.15L227.005 59.1492L239.431 29.9618L240.768 26.8417L240.818 26.8252Z" fill="#313338"/>
<path d="M284.797 45.2828C284.797 42.0471 285.275 39.2076 286.233 36.7643C287.19 34.321 288.477 32.2905 290.061 30.6726C291.662 29.0548 293.477 27.8331 295.54 27.0077C297.603 26.1823 299.715 25.7695 301.877 25.7695C306.943 25.7695 310.887 27.3379 313.725 30.491C316.564 33.6277 317.983 38.3161 317.983 44.5564C317.983 45.0187 317.983 45.547 317.95 46.1413C317.934 46.7356 317.884 47.2639 317.851 47.7261H293.593C293.824 50.6812 294.863 52.9594 296.728 54.5937C298.576 56.2116 301.266 57.0205 304.781 57.0205C306.844 57.0205 308.725 56.8389 310.442 56.4592C312.158 56.0795 313.494 55.6833 314.485 55.2706L315.607 62.2372C315.145 62.4684 314.485 62.716 313.676 62.9801C312.851 63.2443 311.91 63.4754 310.871 63.69C309.831 63.9046 308.676 64.0697 307.455 64.2183C306.233 64.3669 304.996 64.4329 303.725 64.4329C300.491 64.4329 297.685 63.9542 295.292 62.9966C292.9 62.0391 290.936 60.7019 289.385 58.985C287.833 57.2681 286.695 55.2541 285.936 52.9429C285.193 50.6151 284.813 48.0728 284.813 45.3158L284.797 45.2828ZM309.484 41.4858C309.484 40.3137 309.319 39.2076 308.989 38.1511C308.659 37.0945 308.181 36.1865 307.554 35.4106C306.927 34.6347 306.151 34.0239 305.227 33.5781C304.319 33.1324 303.23 32.9013 301.959 32.9013C300.689 32.9013 299.5 33.1489 298.51 33.6442C297.52 34.1394 296.695 34.7833 296.018 35.5757C295.342 36.3681 294.814 37.2926 294.434 38.3161C294.055 39.3397 293.807 40.3962 293.659 41.4858H309.484Z" fill="#313338"/>
</g>
<defs>
<clipPath id="clip0_438_2765">
<rect width="318" height="82.4444" fill="white"/>
</clipPath>
</defs>
</svg>
