<svg width="48" height="48" viewBox="0 0 48 48" fill="none" xmlns="http://www.w3.org/2000/svg">
<path d="M26.9212 29.9601V30.042C26.9471 31.2496 26.9859 32.1984 27.0334 32.8539C27.3353 36.7569 30.1647 39.6334 33.9129 39.8404C35.5174 39.9267 37.4755 39.8577 37.8939 39.8447V34.7558C37.8249 34.7558 37.7257 34.7515 37.6092 34.7515C36.7897 34.7385 35.0903 34.7084 34.672 34.6523C33.2573 34.4582 32.3774 33.3154 32.3774 31.6722V29.9601H38.2174V25.104H32.3774V18.3978H38.2174V13.5418H32.3774V8H26.9471V13.5418H19.9209V8H14.4907V13.5418H9V18.3978H14.4907V18.4841C14.4907 18.5143 14.4389 21.6237 14.4303 25.0221V25.1084H9V29.9644H14.4605V30.0464C14.4863 31.3186 14.5252 32.3019 14.5769 32.966C14.8788 36.869 17.7083 39.7456 21.4564 39.9526C22.9962 40.0388 24.1263 39.9784 24.4282 39.9569V34.8679H24.4066C23.9365 34.8593 22.6814 34.8291 22.2112 34.7644C20.8181 34.5747 19.9166 33.3585 19.9166 31.6766V29.9644H26.9212V29.9601ZM19.9209 18.3978H26.9471V18.4841C26.9471 18.5143 26.8953 21.628 26.8867 25.0221V25.1084H19.9209V18.3978Z" fill="black"/>
</svg>
