<svg width="219" height="71" viewBox="0 0 219 71" fill="none" xmlns="http://www.w3.org/2000/svg">
<path d="M51.5639 22.1597C49.4706 21.2061 47.0284 20.7241 44.2475 20.7241C42.3081 20.7241 40.3379 20.96 38.3369 21.4214C36.7464 21.7906 35.3611 22.293 34.1605 22.898V22.8878C34.1605 22.8878 33.8321 23.0621 33.4217 23.2979C33.3806 23.3287 33.3293 23.3492 33.278 23.3697C33.2575 23.38 33.2472 23.3902 33.237 23.4005C32.6726 23.7286 32.0159 24.1285 31.7183 24.3951L34.4786 29.6145L35.8639 28.9993C35.8844 28.989 35.8947 28.989 35.9152 28.9788C36.1512 28.8455 36.4386 28.7429 36.6848 28.6301L37.7315 28.1584C38.3677 27.9328 39.045 27.7277 39.7838 27.5637C41.2922 27.2253 42.7699 27.051 44.2167 27.051C46.0638 27.051 47.5825 27.5944 48.7728 28.6814C49.9631 29.7683 50.5583 31.2347 50.5583 33.0804V34.557C50.5583 34.557 45.7559 32.66 40.8612 33.0292C37.5263 33.2753 33.9861 35.1723 32.4263 36.8027C30.8255 38.4947 29.6865 40.4019 29.6865 43.2526C29.6865 45.2112 30.1585 46.9339 31.1026 48.4002C32.0467 49.8666 33.3704 51.0048 35.0635 51.7944C36.7567 52.5942 38.6961 52.9838 40.8715 52.9838C43.3753 52.9838 45.5097 52.5634 47.2849 51.7431C49.0601 50.9125 50.4865 49.7845 51.5639 48.3592L52.1693 52.061H58.1518V50.9843V50.5126V32.537C58.1518 30.1272 57.5771 28.0354 56.4176 26.2614C55.2786 24.4874 53.6573 23.1134 51.5639 22.1597ZM50.5583 41.1813C50.5583 41.9606 50.271 43.3244 49.5937 44.0627C48.7831 44.9445 47.9416 45.5085 46.7821 46.0623C45.6225 46.6262 44.3706 46.9031 43.0161 46.9031C41.4051 46.9031 40.0506 46.5237 38.9526 45.7649C37.8546 45.0061 37.3005 44.0319 37.3005 42.8424C37.3005 41.858 37.7315 41.1915 38.3164 40.5455C38.9423 39.8585 39.9685 38.833 42.9956 38.5049C46.6487 38.1152 50.5583 39.7149 50.5583 39.7149V41.1813Z" fill="#2C2C30"/>
<path d="M88.6692 51.6195C86.935 50.8812 84.893 50.5121 82.5329 50.5121H73.4104C72.3535 50.5121 71.5018 50.307 70.8348 49.8968C70.1678 49.4867 69.8395 48.9534 69.8395 48.2972C69.8395 47.7332 69.9729 47.241 70.2396 46.8308C70.5064 46.4104 70.8759 46.0925 71.3479 45.8874C73.1026 46.6565 74.9394 47.0462 76.8583 47.0462C79.4031 47.0462 81.7017 46.4822 83.7335 45.3645C85.7652 44.2468 87.366 42.6881 88.5255 40.6988C89.6851 38.7095 90.2495 36.4843 90.229 34.0028C90.229 31.8494 89.5927 29.8191 88.3306 27.9016H91.4911H92.979V21.667H91.4911H82.0608C81.1476 21.3696 80.224 21.1235 79.2697 20.9492C78.3257 20.7749 77.5458 20.6826 76.9404 20.6826C74.4366 20.6826 72.1893 21.2569 70.1883 22.3951C68.1874 23.5435 66.6276 25.1227 65.5091 27.1223C64.3906 29.1218 63.8262 31.4085 63.8262 33.9516C63.8262 35.541 64.0725 37.0381 64.5651 38.4326C65.0576 39.8375 65.7554 41.0987 66.6687 42.2164C65.5502 42.8214 64.6677 43.7136 64.0212 44.8825C63.3747 46.0515 63.0566 47.3435 63.0566 48.7689C63.0566 50.5018 63.4979 51.999 64.3701 53.2705C65.2423 54.542 66.4737 55.5264 68.054 56.2134C69.6342 56.9005 71.43 57.2491 73.4412 57.2491H82.5636C84.1747 57.2491 85.3753 57.4849 86.1552 57.9464C86.935 58.4181 87.325 59.1974 87.325 60.2946C87.325 61.5559 86.5348 62.53 84.9443 63.2068C83.3538 63.8836 81.1784 64.222 78.418 64.222C76.4991 64.222 74.5289 64.0579 72.4869 63.7298C71.0606 63.5042 69.7882 63.217 68.6491 62.8787C68.4747 62.8274 68.2387 62.7556 68.0027 62.6736C67.8179 62.612 67.6332 62.5505 67.4588 62.489C66.9149 62.3044 66.4019 62.0993 66.2274 61.9455L63.7442 68.2108C63.7442 68.2108 64.0828 68.4672 64.7703 68.7953L64.7806 68.8056C64.7908 68.8056 64.8113 68.8158 64.8216 68.8158C65.5399 69.1542 66.6276 69.5541 68.1155 69.8413C68.1361 69.8413 68.1463 69.8413 68.1668 69.8413C69.0904 70.0566 70.0549 70.2617 71.1119 70.4258C73.6054 70.8154 76.0374 71 78.4283 71C81.5888 71 84.3491 70.5488 86.7195 69.6464C89.0899 68.7441 90.9267 67.452 92.2094 65.7601C93.4921 64.0681 94.1386 62.0378 94.1386 59.6793C94.1386 57.7823 93.6665 56.1417 92.7225 54.7573C91.7374 53.414 90.3931 52.3476 88.6692 51.6195ZM71.6865 30.7933C72.2201 29.8499 72.9589 29.1013 73.8825 28.5476C74.806 28.0041 75.8321 27.7273 76.9506 27.7273C78.0999 27.7273 79.1466 28.0041 80.0906 28.5476C81.0347 29.0911 81.7838 29.8396 82.3379 30.7933C82.892 31.7366 83.1588 32.7928 83.1588 33.9618C83.1588 35.0795 82.8818 36.1049 82.3379 37.0278C81.7838 37.9507 81.045 38.6787 80.0906 39.2017C79.1466 39.7247 78.0897 39.9913 76.9199 39.9913C75.8014 39.9913 74.7752 39.7247 73.8517 39.1812C72.9282 38.648 72.1996 37.9097 71.6763 36.9868C71.1529 36.0639 70.8861 35.0385 70.8861 33.9208C70.8861 32.7928 71.1529 31.7469 71.6865 30.7933Z" fill="#2C2C30"/>
<path d="M178.857 22.8262C176.641 21.4214 174.137 20.7241 171.356 20.7241C169.109 20.7241 167.056 21.2061 165.199 22.1802C163.342 23.1544 161.792 24.5284 160.551 26.3024L160.376 25.195L159.873 21.647H153.532V22.7032V66.0887V67.1039H154.476H160.12H161.135V66.1195C161.135 66.1092 161.135 66.099 161.135 66.0887L161.064 48.1131C162.326 49.682 163.834 50.8817 165.589 51.7226C167.344 52.5634 169.273 52.9838 171.376 52.9838C174.137 52.9838 176.62 52.2866 178.847 50.8817C181.063 49.4769 182.808 47.5491 184.06 45.0984C185.311 42.6476 185.937 39.8995 185.937 36.8642C185.937 33.829 185.311 31.0809 184.06 28.6301C182.818 26.1588 181.073 24.2311 178.857 22.8262ZM177.42 41.2223C176.651 42.5553 175.604 43.6012 174.301 44.3806C172.987 45.1496 171.551 45.5393 169.991 45.5393C168.38 45.5393 166.892 45.1496 165.538 44.3806C164.183 43.6115 163.116 42.5656 162.326 41.2428C161.546 39.92 161.146 38.4639 161.146 36.8745C161.146 35.2646 161.536 33.788 162.326 32.4447C163.106 31.1014 164.173 30.0349 165.517 29.2556C166.861 28.4763 168.339 28.0764 169.95 28.0764C171.52 28.0764 172.957 28.466 174.28 29.2556C175.604 30.0349 176.651 31.1014 177.42 32.4447C178.19 33.788 178.58 35.2646 178.58 36.8745C178.58 38.4434 178.19 39.8892 177.42 41.2223Z" fill="#2C2C30"/>
<path d="M15.3614 34.4541V16.5298H30.9896V9.57743H15.3614V0H7.60373V9.57743H0V16.5298H7.60373V36.2691C7.60373 41.6526 11.9751 46.0209 17.3624 46.0209H25.3766V38.1661H19.0863C17.0237 38.1764 15.3614 36.505 15.3614 34.4541Z" fill="#2C2C30"/>
<path d="M108.464 34.4541V16.5298H125.559V9.57743H108.464V0H100.706V9.57743H93.1025V16.5298H100.706V36.2691C100.706 41.6526 105.078 46.0209 110.465 46.0209H118.479V38.1661H112.189C110.126 38.1764 108.464 36.505 108.464 34.4541Z" fill="#2C2C30"/>
<path d="M150.351 21.6367H149.099H142.993H142.039L141.721 22.4776C141.711 22.4878 141.7 22.5083 141.7 22.5186L141.475 23.1133L134.292 42.4938L130.833 33.2035L126.534 21.647H125.559H119.454H118.202L123.774 34.6801L130.331 50.0306L123.979 65.4119C123.979 65.4222 123.979 65.4222 123.979 65.4222L123.322 67.0218H125.005H130.228H131.111L138.099 50.3382L149.15 24.4054L150.351 21.6367Z" fill="#2C2C30"/>
<path d="M189.478 38.0332C189.478 35.162 189.909 32.6395 190.761 30.4656C191.612 28.2917 192.751 26.4972 194.168 25.0616C195.584 23.6261 197.215 22.5391 199.042 21.8111C200.879 21.083 202.756 20.7139 204.675 20.7139C209.18 20.7139 212.689 22.1084 215.214 24.8976C217.738 27.6867 219 31.8499 219 37.3975C219 37.8179 218.99 38.2793 218.969 38.8023C218.949 39.3252 218.918 39.7969 218.877 40.2071H197.297C197.502 42.8322 198.436 44.8625 200.078 46.2981C201.72 47.7337 204.111 48.4515 207.241 48.4515C209.077 48.4515 210.75 48.2874 212.279 47.949C213.798 47.6209 214.998 47.262 215.881 46.8928L216.876 53.0761C216.455 53.2812 215.881 53.5068 215.152 53.7324C214.424 53.958 213.592 54.1733 212.648 54.3579C211.704 54.5425 210.699 54.7065 209.611 54.8296C208.523 54.9526 207.425 55.0142 206.297 55.0142C203.423 55.0142 200.92 54.5835 198.795 53.7324C196.671 52.8813 194.917 51.6918 193.542 50.1742C192.167 48.6566 191.14 46.8621 190.473 44.801C189.806 42.7399 189.478 40.4942 189.478 38.0332ZM211.427 34.6596C211.427 33.6137 211.284 32.6292 210.986 31.6859C210.699 30.7527 210.268 29.9324 209.703 29.2454C209.139 28.5583 208.451 28.0149 207.641 27.6252C206.83 27.2253 205.855 27.0305 204.737 27.0305C203.567 27.0305 202.551 27.2458 201.669 27.6867C200.796 28.1277 200.047 28.7019 199.452 29.3992C198.847 30.1067 198.375 30.9168 198.046 31.8397C197.708 32.7523 197.482 33.6957 197.359 34.6493H211.427V34.6596Z" fill="#2C2C30"/>
</svg>
