<svg width="32" height="32" viewBox="0 0 32 32" fill="none" xmlns="http://www.w3.org/2000/svg">
<path d="M26.6673 7.98746C27.403 7.25368 27.4038 6.06214 26.6691 5.32737C25.9357 4.594 24.7469 4.5932 24.0125 5.32559L15.9875 13.3292L7.98746 5.32915C7.25339 4.59508 6.06322 4.59508 5.32915 5.32915C4.59508 6.06322 4.59508 7.25339 5.32915 7.98746L13.3292 15.9875L5.32559 24.0125C4.5932 24.7469 4.594 25.9357 5.32737 26.6691C6.06214 27.4038 7.25368 27.403 7.98746 26.6673L15.9875 18.6458L24.0125 26.6708C24.7466 27.4049 25.9368 27.4049 26.6708 26.6708C27.4049 25.9368 27.4049 24.7466 26.6708 24.0125L18.6458 15.9875L26.6673 7.98746Z" fill="#313338"/>
</svg>
