<svg width="208" height="208" viewBox="0 0 208 208" fill="none" xmlns="http://www.w3.org/2000/svg">
<path d="M207.284 36.5029L205.853 35.0714L205.499 35.425L204.068 33.9935L204.421 33.64L202.99 32.2085L202.636 32.562L201.205 31.1305L201.558 30.777L200.127 29.3455L199.773 29.699L198.342 28.2676L198.695 27.914L197.264 26.4825L196.91 26.8361L195.479 25.4046L195.832 25.051L194.401 23.6195L194.047 23.9731L192.616 22.5416L192.969 22.1881L191.538 20.7566L191.184 21.1101L189.753 19.6786L190.106 19.3251L188.675 17.8936L188.321 18.2471L186.89 16.8157L187.243 16.4621L185.812 15.0306L185.458 15.3842L184.027 13.9527L184.38 13.5991L182.949 12.1676L182.595 12.5212L181.164 11.0897L181.517 10.7362L180.086 9.30467L179.732 9.65822L178.301 8.22673L178.655 7.87318L177.223 6.44169L176.869 6.79524L175.438 5.36375L175.792 5.0102L174.36 3.57871L174.007 3.93227L172.575 2.50078L172.929 2.14722L171.497 0.715736L171.144 1.06929L170.574 0.5H169.788V0H167.803V0.5H165.817V0H163.831V0.5H161.845V0H159.859V0.5H157.873V0H155.888V0.5H153.902V0H151.916V0.5H149.93V0H147.944V0.5H145.958V0H143.973V0.5H141.987V0H140.001V0.5H138.015V0H136.029V0.5H134.043V0H132.058V0.5H130.072V0H128.086V0.5H126.1V0H124.114V0.5H122.129V0H120.143V0.5H118.157V0H116.171V0.5H114.185V0H112.199V0.5H110.214V0H108.228V0.5H106.242V0H104.256V0.5H102.27V0H100.284V0.5H98.2986V0H96.3127V0.5H94.3269V0H92.3411V0.5H90.3552V0H88.3694V0.5H86.3836V0H84.3977V0.5H82.4119V0H80.4261V0.5H78.4402V0H76.4544V0.5H74.4686V0H72.4827V0.5H70.4969V0H68.5111V0.5H66.5253V0H64.5394V0.5H62.5536V0H60.5677V0.5H58.5819V0H56.5961V0.5H54.6103V0H52.6244V0.5H50.6386V0H48.6528V0.5H46.6669V0H44.6811V0.5H42.6953V0H40.7094V0.5H38.7236V0H36.7378V0.5H34.752V0H32.7661V0.5H30.7803V0H28.7945V0.5H26.8087V0H24.8228V0.5H22.837V0H20.8512V0.5H18.8654V0H16.8795V0.5H14.8937V0H12.9079V0.5H10.9221V0H8.93625V0.5H6.95043V0H4.9646V0.5H2.97878V0H0.992946V0.5H0.5V1H0V3H0.5V5H0V7H0.5V9H0V11H0.5V13H0V15H0.5V17H0V19H0.5V21H0V23H0.5V25H0V27H0.5V29H0V31H0.5V33H0V35H0.5V37H0V39H0.5V41H0V43H0.5V45H0V47H0.5V49H0V51H0.5V53H0V55H0.5V57H0V59H0.5V61H0V63H0.5V65H0V67H0.5V69H0V71H0.5V73H0V75H0.5V77H0V79H0.5V81H0V83H0.5V85H0V87H0.5V89H0V91H0.5V93H0V95H0.5V97H0V99H0.5V101H0V103H0.5V105H0V107H0.5V109H0V111H0.5V113H0V115H0.5V117H0V119H0.5V121H0V123H0.5V125H0V127H0.5V129H0V131H0.5V133H0V135H0.5V137H0V139H0.5V141H0V143H0.5V145H0V147H0.5V149H0V151H0.5V153H0V155H0.5V157H0V159H0.5V161H0V163H0.5V165H0V167H0.5V169H0V171H0.5V173H0V175H0.5V177H0V179H0.5V181H0V183H0.5V185H0V187H0.5V189H0V191H0.5V193H0V195H0.5V197H0V199H0.5V201H0V203H0.5V205H0V207H0.5V207.5H1V208H3V207.5H5V208H7V207.5H9V208H11V207.5H13V208H15V207.5H17V208H19V207.5H21V208H23V207.5H25V208H27V207.5H29V208H31V207.5H33V208H35V207.5H37V208H39V207.5H41V208H43V207.5H45V208H47V207.5H49V208H51V207.5H53V208H55V207.5H57V208H59V207.5H61V208H63V207.5H65V208H67V207.5H69V208H71V207.5H73V208H75V207.5H77V208H79V207.5H81V208H83V207.5H85V208H87V207.5H89V208H91V207.5H93V208H95V207.5H97V208H99V207.5H101V208H103V207.5H105V208H107V207.5H109V208H111V207.5H113V208H115V207.5H117V208H119V207.5H121V208H123V207.5H125V208H127V207.5H129V208H131V207.5H133V208H135V207.5H137V208H139V207.5H141V208H143V207.5H145V208H147V207.5H149V208H151V207.5H153V208H155V207.5H157V208H159V207.5H161V208H163V207.5H165V208H167V207.5H169V208H171V207.5H173V208H175V207.5H177V208H179V207.5H181V208H183V207.5H185V208H187V207.5H189V208H191V207.5H193V208H195V207.5H197V208H199V207.5H201V208H203V207.5H205V208H207V207.5H207.5V207.007H208V205.021H207.5V203.035H208V201.05H207.5V199.064H208V197.078H207.5V195.092H208V193.106H207.5V191.12H208V189.135H207.5V187.149H208V185.163H207.5V183.177H208V181.191H207.5V179.205H208V177.22H207.5V175.234H208V173.248H207.5V171.262H208V169.276H207.5V167.291H208V165.305H207.5V163.319H208V161.333H207.5V159.347H208V157.361H207.5V155.376H208V153.39H207.5V151.404H208V149.418H207.5V147.432H208V145.446H207.5V143.461H208V141.475H207.5V139.489H208V137.503H207.5V135.517H208V133.531H207.5V131.546H208V129.56H207.5V127.574H208V125.588H207.5V123.602H208V121.616H207.5V119.631H208V117.645H207.5V115.659H208V113.673H207.5V111.687H208V109.701H207.5V107.716H208V105.73H207.5V103.744H208V101.758H207.5V99.7723H208V97.7864H207.5V95.8006H208V93.8148H207.5V91.8289H208V89.8431H207.5V87.8573H208V85.8714H207.5V83.8856H208V81.8998H207.5V79.9139H208V77.9281H207.5V75.9423H208V73.9565H207.5V71.9706H208V69.9848H207.5V67.999H208V66.0132H207.5V64.0273H208V62.0415H207.5V60.0557H208V58.0699H207.5V56.084H208V54.0982H207.5V52.1124H208V50.1266H207.5V48.1408H208V46.1549H207.5V44.1691H208V42.1833H207.5V40.1975H208V38.2116H207.5V37.4258L206.931 36.8565L207.284 36.5029Z" fill="white" stroke="#19D29A" stroke-dasharray="4"/>
</svg>
