<svg width="24" height="25" viewBox="0 0 24 25" fill="none" xmlns="http://www.w3.org/2000/svg">
    <g clip-path="url(#clip0_1625_17938)">
        <path d="M4 21.5V19.4924H5.75279C6.77019 19.4924 7.195 18.8952 7.195 18.1334V6.68475C7.195 6.0327 6.71664 5.67922 5.86702 5.67922H4V3.5H20V10.398H18.2686C17.7046 5.94347 17.4012 5.67922 13.56 5.67922H10.3971V11.1564H11.7251C13.5315 11.1564 14.0705 9.87979 14.0705 8.49676V8.13298H15.9447V16.5135H14.0669V15.8237C14.0669 13.895 13.303 13.1641 11.5538 13.1641H10.3971V18.0785C10.3971 19.1114 10.8755 19.4889 12.1749 19.4889H13.5886V21.4966H4V21.5Z"
              fill="white"/>
    </g>
    <defs>
        <clipPath id="clip0_1625_17938">
            <rect width="16" height="18" fill="white" transform="translate(4 3.5)"/>
        </clipPath>
    </defs>
</svg>
