<svg width="41" height="40" viewBox="0 0 41 40" fill="none" xmlns="http://www.w3.org/2000/svg">
<path d="M28.6503 30.9617V13.5072L24.0548 9.04297H17.3829L12.791 13.5072V30.9617H28.6503Z" fill="white" stroke="#19D29A"/>
<path d="M29.7197 32H11.7197V13.0747L16.9395 8H24.4963L29.7162 13.0747V32H29.7197ZM13.8605 29.9188H27.579V13.9384L23.6115 10.0812H17.828L13.8605 13.9384V29.9188Z" fill="#19D29A" stroke="#19D29A"/>
<path d="M25.736 21.2759H23.8307V18.9206H25.736V17.1863H23.8307V15.2021H22.0468V17.1863H19.5029V15.2021H17.7189V17.1863H15.7744V18.9206H17.7189V21.2759H15.7744V23.0102H17.7189V24.8035H19.5029V23.0102H22.0468V24.8035H23.8307V23.0102H25.736V21.2759ZM22.0468 21.2759H19.5029V18.9206H22.0468V21.2759Z" fill="#19D29A" stroke="#19D29A"/>
</svg>
