<svg width="148" height="78" viewBox="0 0 148 78" fill="none" xmlns="http://www.w3.org/2000/svg">
<path d="M8.86035 48.204V8.14062H10.8636V48.204H8.86035ZM14.8701 54.1109H19.2758C20.9669 54.1109 22.2371 54.4505 23.079 55.1298C23.9718 55.8091 24.4145 56.7616 24.4145 57.9799C24.4145 58.7477 24.2113 59.4492 23.8121 60.0842C23.3694 60.7192 22.7887 61.1696 22.0774 61.4428C22.9702 61.7603 23.6815 62.2771 24.2113 63.0081C24.7484 63.776 25.0097 64.5956 25.0097 65.452C25.0097 66.8106 24.5161 67.896 23.5436 68.7082C22.6073 69.4761 21.1629 69.86 19.2032 69.86H14.8628V54.1035L14.8701 54.1109ZM19.0072 60.6306C21.4532 60.6306 22.6798 59.7888 22.6798 58.1201C22.6798 57.3965 22.3895 56.8059 21.8089 56.3555C21.2718 55.8534 20.4298 55.6097 19.2758 55.6097H16.5395V60.6379H19.0072V60.6306ZM19.5443 68.3021C21.9468 68.3021 23.1516 67.3053 23.1516 65.3118C23.1516 63.1853 21.7943 62.122 19.0798 62.122H16.5467V68.3021H19.5516H19.5443ZM16.8733 48.204V8.14062H18.8766V48.204H16.8733ZM20.8798 48.204V8.14062H24.8863V48.204H20.8798Z" fill="black"/>
<path d="M29.0098 48.204V8.14062H31.013V48.204H29.0098ZM36.2824 68.3686H39.222V59.811H36.4203V58.3195H40.9567V68.3686H43.6276V69.86H36.2824V68.3686ZM40.0204 55.8755C39.6647 55.8755 39.3526 55.7648 39.0841 55.5359C38.859 55.2627 38.7502 54.9452 38.7502 54.5834C38.7502 54.2216 38.859 53.9263 39.0841 53.6974C39.3091 53.4242 39.6212 53.2913 40.0204 53.2913C40.3325 53.2913 40.6228 53.4242 40.8913 53.6974C41.1599 53.9706 41.2905 54.2659 41.2905 54.5834C41.2905 54.9452 41.1599 55.2627 40.8913 55.5359C40.6228 55.7648 40.3325 55.8755 40.0204 55.8755ZM39.0187 48.204V8.14062H43.0252V48.204H39.0187ZM45.0285 48.204V8.14062H47.0317V48.204H45.0285Z" fill="black"/>
<path d="M51.0312 48.0634V8H53.0345V48.0634H51.0312ZM55.0377 48.0634V8H63.0507V48.0634H55.0377ZM62.0491 69.9926C60.133 69.9926 58.5362 69.3798 57.2442 68.1615L58.2458 66.4633L58.3765 66.1901L58.5797 66.323V66.5297C58.6233 66.6626 58.6668 66.7808 58.7104 66.8694C58.7975 67.0023 58.8845 67.1425 58.9789 67.2755C59.3781 67.6372 59.8209 67.9326 60.3144 68.1615C60.8007 68.3387 61.4031 68.4347 62.1144 68.4347C63.0072 68.4347 63.7185 68.2722 64.2483 67.9621C64.7346 67.6446 64.9814 67.1942 64.9814 66.6035C64.9814 66.1015 64.7782 65.6954 64.379 65.3779C63.9798 65.0604 63.2249 64.7429 62.1072 64.4254C59.262 63.5615 57.8321 62.3654 57.8321 60.8296C57.8321 59.9214 58.2095 59.22 58.9644 58.7253C59.6757 58.1789 60.6991 57.9131 62.0346 57.9131C63.058 57.9131 63.9217 58.0681 64.6403 58.3856C65.3515 58.6588 65.9975 59.1092 66.5782 59.7442L65.5112 60.9699L65.3806 61.1766L65.2499 61.0437C65.2499 60.8591 65.2064 60.7262 65.1193 60.6376C65.0757 60.5047 64.9596 60.3644 64.7854 60.2315C64.3862 59.914 63.958 59.6851 63.5152 59.5522C63.0217 59.3676 62.5572 59.279 62.1144 59.279C61.4031 59.279 60.8007 59.4119 60.3144 59.6851C59.8717 59.914 59.6467 60.2537 59.6467 60.7041C59.6467 61.1545 59.8934 61.5384 60.3797 61.8559C60.8225 62.2177 61.6499 62.5795 62.8475 62.9413C64.2701 63.3917 65.2717 63.8716 65.8524 64.3663C66.4766 64.861 66.7887 65.5403 66.7887 66.4042C66.7887 67.4453 66.3895 68.3092 65.5838 68.9811C64.7854 69.6604 63.6023 70 62.0491 70V69.9926ZM67.0572 48.0634V8H69.0604V48.0634H67.0572Z" fill="black"/>
<path d="M73.0605 48.0966V8.0332H75.0638V48.0966H73.0605ZM79.0703 48.0966V8.0332H87.0833V48.0966H79.0703ZM88.8833 68.6746C87.8163 69.5311 86.6115 69.9667 85.276 69.9667C84.0276 69.9667 83.1421 69.5828 82.605 68.8149C82.0679 68.0027 81.8066 66.7327 81.8066 65.0124C81.8066 64.6949 81.8284 64.2002 81.8719 63.5209L82.1405 59.7183H79.6074V58.2268H82.2131L82.4163 55.17L84.3542 54.8304H84.6228V54.9633C84.5357 55.0962 84.4631 55.2365 84.4195 55.3694C84.3324 55.5023 84.2889 55.6869 84.2889 55.9158L84.0203 58.2268H87.7583V59.7183H83.8897L83.6865 63.6538C83.6429 64.3331 83.6211 64.7613 83.6211 64.9459C83.6211 66.3045 83.7736 67.2348 84.0857 67.7295C84.3977 68.1799 84.884 68.4088 85.5518 68.4088C86.0381 68.4088 86.5099 68.3202 86.9526 68.1356C87.3518 67.951 87.8236 67.6631 88.3534 67.2496L88.8905 68.6746H88.8833ZM89.0865 48.0966V8.0332H91.0897V48.0966H89.0865Z" fill="black"/>
<path d="M95.0898 48.1962V8.13281H97.0931V48.1962H95.0898ZM101.1 48.1962V8.13281H103.103V48.1962H101.1ZM108.242 58.0385C109.446 58.0385 110.448 58.4667 111.246 59.3306L110.448 60.6892L110.383 60.9624L110.179 60.8295C110.136 60.6449 110.092 60.512 110.049 60.4234C109.962 60.2905 109.802 60.1502 109.584 60.0173C109.185 59.7441 108.692 59.6112 108.118 59.6112C107.545 59.6112 106.986 59.7663 106.449 60.0837C105.912 60.3569 105.491 60.8073 105.179 61.4423C104.823 62.0773 104.642 62.8452 104.642 63.7534V69.867H102.842V58.3265H104.707L104.642 60.4308C104.954 59.7072 105.44 59.1165 106.108 58.6661C106.775 58.26 107.487 58.0533 108.242 58.0533V58.0385ZM107.109 48.1962V8.13281H115.122V48.1962H107.109Z" fill="black"/>
<path d="M119.122 48.1005V8.03711H121.125V48.1005H119.122ZM130.133 69.9633C129.109 69.9633 128.195 69.7122 127.396 69.2175C126.642 68.7154 126.039 68.014 125.596 67.1132C125.103 66.205 124.863 65.1639 124.863 63.9899C124.863 62.816 125.11 61.7749 125.596 60.8667C126.039 59.9585 126.642 59.2571 127.396 58.7624C128.195 58.216 129.109 57.9502 130.133 57.9502C131.156 57.9502 132.049 58.2234 132.804 58.7624C133.602 59.2571 134.226 59.9585 134.676 60.8667C135.119 61.7749 135.344 62.816 135.344 63.9899C135.344 65.1639 135.119 66.205 134.676 67.1132C134.234 68.0214 133.609 68.7228 132.804 69.2175C132.049 69.7122 131.156 69.9633 130.133 69.9633ZM130.133 68.4718C130.757 68.4718 131.338 68.265 131.867 67.8589C132.354 67.4972 132.76 66.9729 133.072 66.2936C133.341 65.57 133.471 64.78 133.471 63.9161C133.471 62.6018 133.159 61.5386 132.535 60.7264C131.911 59.9142 131.113 59.5007 130.133 59.5007C129.153 59.5007 128.354 59.9068 127.73 60.7264C127.106 61.5386 126.794 62.6018 126.794 63.9161C126.794 64.7726 126.925 65.57 127.193 66.2936C127.505 66.9729 127.904 67.4898 128.398 67.8589C128.884 68.265 129.465 68.4718 130.133 68.4718ZM127.128 48.1005V8.03711H135.141V48.1005H127.128ZM137.137 48.1005V8.03711H139.14V48.1005H137.137Z" fill="black"/>
</svg>
