<svg width="288" height="100" viewBox="0 0 288 100" fill="none" xmlns="http://www.w3.org/2000/svg">
<path d="M41.8063 37.0709H36V31.7557H41.8063V24.2427H47.736V31.7557H63.0364V37.0709H47.736V51.5923C47.736 53.1622 49.0026 54.4293 50.5719 54.4293H54.2597V60.4397H49.2604C45.1467 60.4397 41.8063 57.0981 41.8063 52.9828V37.0709Z" fill="#2C2C30"/>
<path d="M57.6 37.0709H51.7937V31.7557H57.6V24.2427H63.5297V31.7557H70.0534V37.0709H63.5297V51.5923C63.5297 53.1622 64.7963 54.4293 66.3656 54.4293H70.0534V60.4397H65.0541C60.9404 60.4397 57.6 57.0981 57.6 52.9828V37.0709Z" fill="#2C2C30"/>
<path d="M70.0533 43.429H36V48.7441H70.0533V43.429Z" fill="#2C2C30"/>
<path d="M124.014 40.6255C122.411 39.8967 120.551 39.5266 118.432 39.5266C116.952 39.5266 115.45 39.706 113.915 40.0649C112.693 40.3452 111.639 40.7265 110.72 41.1974C110.72 41.1974 110.473 41.332 110.148 41.5114C110.115 41.5338 110.07 41.545 110.036 41.5675C110.025 41.5675 110.014 41.5787 110.003 41.5899C109.577 41.8366 109.072 42.1506 108.848 42.3524L110.955 46.3444L112.009 45.8734C112.009 45.8734 112.032 45.8734 112.054 45.8622C112.233 45.7613 112.446 45.6828 112.648 45.5931L113.444 45.2343C113.926 45.0548 114.453 44.9091 115.013 44.7745C116.168 44.5166 117.3 44.382 118.398 44.382C119.811 44.382 120.965 44.7969 121.884 45.6267C122.792 46.4565 123.252 47.5779 123.252 48.9908V50.1121C123.252 50.1121 119.587 48.6656 115.843 48.9459C113.298 49.1365 110.586 50.5831 109.409 51.8278C108.187 53.1173 107.324 54.5751 107.324 56.7617C107.324 58.2643 107.682 59.5763 108.411 60.6976C109.14 61.819 110.137 62.6936 111.437 63.2991C112.727 63.9047 114.206 64.2074 115.876 64.2074C117.782 64.2074 119.418 63.8935 120.775 63.2543C122.131 62.6263 123.218 61.7629 124.048 60.664L124.519 63.4898H129.092V48.5422C129.092 46.7032 128.655 45.0997 127.769 43.7429C126.884 42.386 125.639 41.3432 124.048 40.6031L124.014 40.6255ZM123.252 55.1694C123.252 55.7637 123.028 56.8065 122.523 57.3672C121.907 58.04 121.257 58.4661 120.382 58.9035C119.497 59.3296 118.533 59.5426 117.502 59.5426C116.269 59.5426 115.237 59.2511 114.397 58.668C113.556 58.0849 113.141 57.3448 113.141 56.4253C113.141 55.674 113.466 55.1694 113.915 54.6648C114.385 54.1377 115.181 53.3528 117.49 53.1061C120.281 52.8033 123.263 54.0368 123.263 54.0368V55.1582L123.252 55.1694Z" fill="#2C2C30"/>
<path d="M152.687 63.1421C151.364 62.5814 149.806 62.3011 148.002 62.3011H141.041C140.234 62.3011 139.584 62.1441 139.068 61.8301C138.564 61.5162 138.306 61.1125 138.306 60.6079C138.306 60.1817 138.407 59.8005 138.608 59.4865C138.81 59.1613 139.09 58.9258 139.449 58.7576C140.783 59.352 142.195 59.6435 143.652 59.6435C145.603 59.6435 147.352 59.2174 148.898 58.354C150.456 57.5017 151.667 56.3131 152.553 54.7881C153.438 53.2743 153.864 51.5586 153.853 49.6747C153.853 48.0264 153.371 46.4789 152.407 45.0099H155.949V40.2442H147.609C146.914 40.0087 146.208 39.8293 145.48 39.6948C144.751 39.5602 144.157 39.4929 143.697 39.4929C141.792 39.4929 140.066 39.9302 138.541 40.8049C137.017 41.6795 135.817 42.8906 134.965 44.4268C134.114 45.9631 133.676 47.7012 133.676 49.6523C133.676 50.8634 133.867 52.0071 134.237 53.0836C134.607 54.1601 135.145 55.1245 135.84 55.9767C134.988 56.4365 134.304 57.1205 133.822 58.0175C133.34 58.9146 133.082 59.9014 133.082 60.9891C133.082 62.3123 133.419 63.4561 134.091 64.4317C134.764 65.4072 135.694 66.1585 136.905 66.6856C138.115 67.2126 139.483 67.4705 141.018 67.4705H147.979C149.212 67.4705 150.131 67.6499 150.725 68.0087C151.32 68.3676 151.622 68.9619 151.622 69.8029C151.622 70.7673 151.017 71.5073 149.806 72.0232C148.596 72.539 146.937 72.7969 144.829 72.7969C143.361 72.7969 141.859 72.6735 140.301 72.4268C139.214 72.2474 138.238 72.0344 137.364 71.7765C137.23 71.7316 137.05 71.6755 136.871 71.6195C136.725 71.5746 136.591 71.5298 136.456 71.4737C136.041 71.3279 135.649 71.1709 135.515 71.0588L133.62 75.8469C133.62 75.8469 133.878 76.0376 134.405 76.2955L134.439 76.3179C134.988 76.5758 135.817 76.8786 136.949 77.1029C136.961 77.1029 136.972 77.1029 136.994 77.1029C137.7 77.2711 138.44 77.4168 139.247 77.5514C141.153 77.8429 143.014 77.9887 144.829 77.9887C147.239 77.9887 149.347 77.6411 151.163 76.9571C152.978 76.2731 154.368 75.2751 155.355 73.9855C156.341 72.6848 156.823 71.1373 156.823 69.3319C156.823 67.8854 156.465 66.6295 155.736 65.5642C155.007 64.4989 153.987 63.6916 152.665 63.1309L152.687 63.1421ZM139.718 47.2302C140.133 46.5013 140.682 45.9294 141.388 45.5145C142.094 45.0996 142.879 44.8866 143.731 44.8866C144.583 44.8866 145.401 45.0996 146.13 45.5145C146.858 45.9294 147.419 46.5013 147.845 47.2302C148.259 47.9479 148.472 48.7664 148.472 49.6523C148.472 50.5382 148.259 51.2895 147.845 51.9959C147.43 52.7024 146.858 53.2518 146.13 53.6555C145.401 54.0592 144.594 54.261 143.709 54.261C142.823 54.261 142.072 54.0592 141.366 53.6443C140.66 53.2294 140.11 52.6799 139.707 51.9735C139.303 51.267 139.102 50.4821 139.102 49.6299C139.102 48.7777 139.303 47.9591 139.718 47.2302Z" fill="#2C2C30"/>
<path d="M221.343 41.1301C219.65 40.0536 217.734 39.5266 215.615 39.5266C213.9 39.5266 212.331 39.8967 210.919 40.6367C209.495 41.3768 208.318 42.4309 207.365 43.7877L207.231 42.9355L206.85 40.2218H202.007V74.9724H207.814V74.221C207.814 74.221 207.814 74.2098 207.814 74.1986L207.758 60.4509C208.722 61.6508 209.876 62.5703 211.21 63.2094C212.544 63.8486 214.024 64.1738 215.626 64.1738C217.734 64.1738 219.639 63.6355 221.332 62.5703C223.024 61.4938 224.358 60.0248 225.311 58.1522C226.264 56.2795 226.746 54.1826 226.746 51.8502C226.746 49.5178 226.264 47.4321 225.311 45.5482C224.358 43.6756 223.024 42.1954 221.332 41.1301H221.343ZM220.245 55.1918C219.65 56.2122 218.866 57.0084 217.857 57.6027C216.859 58.197 215.761 58.4886 214.562 58.4886C213.362 58.4886 212.196 58.197 211.165 57.6027C210.134 57.0084 209.316 56.2122 208.71 55.203C208.116 54.1938 207.814 53.0837 207.814 51.8614C207.814 50.6391 208.116 49.4954 208.71 48.475C209.304 47.4433 210.123 46.6359 211.143 46.0416C212.174 45.4473 213.295 45.1446 214.528 45.1446C215.761 45.1446 216.826 45.4473 217.835 46.0416C218.843 46.6359 219.639 47.4545 220.233 48.475C220.827 49.4954 221.119 50.6279 221.119 51.8614C221.119 53.0949 220.827 54.1714 220.233 55.1806L220.245 55.1918Z" fill="#2C2C30"/>
<path d="M96.3612 49.3496V34.8282H108.299V29.513H96.3612V22H90.4316V29.513H84.6252V34.8282H90.4316V50.7401C90.4316 54.8554 93.7719 58.197 97.8856 58.197H104.006V52.1866H99.1971C97.6278 52.1866 96.3612 50.9195 96.3612 49.3496Z" fill="#2C2C30"/>
<path d="M167.584 49.3496V34.8282H180.643V29.513H167.584V22H161.654V29.513H155.848V34.8282H161.654V50.7401C161.654 54.8554 164.995 58.197 169.109 58.197H175.229V52.1866H170.42C168.851 52.1866 167.584 50.9195 167.584 49.3496Z" fill="#2C2C30"/>
<path d="M199.575 40.2219H193.219L192.973 40.8611C192.973 40.8611 192.961 40.8835 192.95 40.8947L192.782 41.3545L187.301 56.1675L184.655 49.0581L181.371 40.2219H175.004L179.264 50.1907L184.263 61.9312L179.41 73.6941L178.905 74.9276H184.857L190.193 62.1779L198.633 42.3525L199.541 40.2331L199.575 40.2219Z" fill="#2C2C30"/>
<path d="M229.447 52.7585C229.447 50.5606 229.772 48.6319 230.422 46.9723C231.073 45.3127 231.947 43.9335 233.023 42.8345C234.11 41.7356 235.343 40.9058 236.744 40.3452C238.146 39.7845 239.58 39.5042 241.049 39.5042C244.49 39.5042 247.169 40.5694 249.097 42.7112C251.025 44.8418 251.989 48.0264 251.989 52.2651C251.989 52.579 251.989 52.9379 251.966 53.3416C251.955 53.7452 251.922 54.1041 251.899 54.418H235.422C235.579 56.4253 236.285 57.9727 237.551 59.0828C238.807 60.1818 240.634 60.7312 243.022 60.7312C244.423 60.7312 245.701 60.6079 246.866 60.35C248.032 60.0921 248.94 59.8229 249.613 59.5426L250.375 64.2747C250.061 64.4317 249.613 64.5999 249.063 64.7793C248.503 64.9587 247.864 65.1157 247.158 65.2615C246.452 65.4072 245.667 65.5194 244.837 65.6203C244.008 65.7212 243.167 65.7661 242.304 65.7661C240.107 65.7661 238.202 65.4409 236.576 64.7905C234.951 64.1401 233.617 63.2318 232.563 62.0656C231.51 60.8994 230.736 59.5314 230.221 57.9615C229.716 56.3804 229.458 54.6535 229.458 52.7809L229.447 52.7585ZM246.216 50.1794C246.216 49.3832 246.104 48.6319 245.88 47.9142C245.656 47.1966 245.331 46.5798 244.905 46.0528C244.479 45.5258 243.952 45.1109 243.324 44.8081C242.708 44.5054 241.968 44.3484 241.105 44.3484C240.242 44.3484 239.435 44.5166 238.762 44.853C238.09 45.1894 237.529 45.6267 237.069 46.1649C236.61 46.7032 236.251 47.3311 235.993 48.0264C235.736 48.7216 235.567 49.4393 235.467 50.1794H246.216Z" fill="#2C2C30"/>
</svg>
